PathFileType	4	(X/Y/Z)	Walk3.trc
DataRate	CameraRate	NumFrames	NumMarkers	Units	OrigDataRate	OrigDataStartFrame	OrigNumFrames
200.000000	200.000000	4	56	mm	200.000000	494	604
Frame#	Times		RFA1		RUA1		RACR1		LFA1		RBHD		RASI		C7		RTH2		RTH3		RElbow		LElbowM		RTB1		RTB3		RWRU		RTH4		RLFC		RTH1		LACR1		RTB2		RMT1		RCAR		RMT5		RTB4		LElbow		LTH2		LTH3		LTH4		LWRU		LPSI		RPSI		LTB1		LLFC		T10		RWRR		LTH1		LBHD		LWRR		LTB3		LTB2		LFHD		LMT1		RBack		LCAL		LTB4		LLMAL		CLAV		LMMAL		RElbowM		LToe		LMT5		RMMAL		RLMAL		LCAR		LUA1		RCAL		RToe
			X1	Y1	Z1	X2	Y2	Z2	X3	Y3	Z3	X4	Y4	Z4	X5	Y5	Z5	X6	Y6	Z6	X7	Y7	Z7	X8	Y8	Z8	X9	Y9	Z9	X10	Y10	Z10	X11	Y11	Z11	X12	Y12	Z12	X13	Y13	Z13	X14	Y14	Z14	X15	Y15	Z15	X16	Y16	Z16	X17	Y17	Z17	X18	Y18	Z18	X19	Y19	Z19	X20	Y20	Z20	X21	Y21	Z21	X22	Y22	Z22	X23	Y23	Z23	X24	Y24	Z24	X25	Y25	Z25	X26	Y26	Z26	X27	Y27	Z27	X28	Y28	Z28	X29	Y29	Z29	X30	Y30	Z30	X31	Y31	Z31	X32	Y32	Z32	X33	Y33	Z33	X34	Y34	Z34	X35	Y35	Z35	X36	Y36	Z36	X37	Y37	Z37	X38	Y38	Z38	X39	Y39	Z39	X40	Y40	Z40	X41	Y41	Z41	X42	Y42	Z42	X43	Y43	Z43	X44	Y44	Z44	X45	Y45	Z45	X46	Y46	Z46	X47	Y47	Z47	X48	Y48	Z48	X49	Y49	Z49	X50	Y50	Z50	X51	Y51	Z51	X52	Y52	Z52	X53	Y53	Z53	X54	Y54	Z54	X55	Y55	Z55	X56	Y56	Z56

494	2.47	542.74	944.23	536.79	608.77	1203.7	489.42	692.99	1383.1	413.85	720.91	1001	-69.644	655.26	1564.1	335.66	715.14	928.18	391.09	632.24	1434.5	262.63	797.37	674.74	403.91	778.1	558.33	422.69	535.24	1091	508.83	579.3	1102.7	37.394	882.92	399.35	325.9	938.25	217.13	333.55	504.9	817.67	530.31	739.24	643.71	439.17	818.16	470.77	403.64	699.41	729.43	445.6	678.1	1425.8	88.583	896.74	306.58	402.67	1074.8	96	297.69	535.68	756.71	541.53	1050.5	85.117	379.03	911.76	311.04	331.94	601.9	1110.2	-40.456	680.07	635.5	102.27	594.02	560.2	77.506	613.94	646.6	62.764	737.05	882.6	-64.423	531.56	957.12	193.12	531.35	954.33	297.7	564.19	350.2	157.46	550.89	446.83	96.354	527.56	1128.6	245.85	576.38	802.79	502.5	636.45	741.58	54.769	656.16	1567.9	196.68	801.81	918.84	-29.209	490.07	181.26	178.05	496.97	271.05	102.38	837.43	1599.9	223.06	547.94	34.875	228.07	556.42	1347	351.1	335.86	46.438	209.13	525.21	266.18	168.46	388.86	82.179	159.74	766.93	1350.4	251.16	424.23	96.35	245.2	517.99	1071	414.7	596.88	24.164	211.82	514.97	29.64	137.97	938.87	121.6	289.89	917.52	99.467	375.13	819.26	870.6	-78.845	636.46	1237.7	-16.108	889.28	36.689	334.31	1113.4	122.06	324.14
495	2.475	547.4	943.44	536.44	614.93	1202.4	489.57	699.67	1382	414.19	729.31	1001	-69.767	662.02	1563	336.47	722.4	927.13	391.27	638.84	1433.4	263.17	803.26	672.9	403.83	783.88	556.67	422.51	540.72	1090.1	508.73	587.15	1101.7	37.346	891.15	399.59	325.6	949.08	218.06	333.3	508.29	817.07	530.21	745.3	642.29	439.46	825.35	470.42	403.5	705.6	727.73	445.99	685.12	1425	89.085	906.6	307.03	402.49	1087.8	99.075	296.95	538.6	755.8	541.47	1063.8	87.682	377.93	921.08	311.55	331.64	609.65	1109.3	-40.481	684.93	634.4	102.51	598.4	559.71	77.693	618.96	645.98	62.9	746.41	882.74	-64.468	538.45	955.56	193.88	538.4	952.83	298.64	567.23	349.62	157.7	554.89	446.51	96.516	534.37	1127.4	246.29	579.59	800.77	501.59	642.22	740.81	54.903	662.8	1567.1	197.5	810.97	919.43	-29.219	491.38	181.29	178.06	499.31	271.36	102.38	844.26	1598.8	223.96	547.95	34.907	228.1	563.34	1345.7	351.13	336.01	47.995	208.99	527.32	266.08	168.42	389.4	83.124	159.65	773.79	1349.1	251.45	424.96	97.055	245.04	523.52	1070.3	414.31	596.88	24.095	211.86	514.83	29.54	137.91	951.08	122.53	289.7	930.16	100.33	375.21	828.5	871.34	-78.916	643.75	1237	-15.716	902.81	36.775	333.85	1126.1	125.43	323.06
496	2.48	551.85	942.55	536.45	621.06	1201.4	489.65	706.44	1380.6	414.48	737.7	1000.8	-69.753	668.66	1561.6	337.14	729.84	926.09	391.35	645.54	1432.2	263.48	809.53	671.43	403.61	790.43	555.22	422.21	546.39	1089.1	508.43	594.75	1100.7	37.224	899.21	399.45	325.65	959.33	218.85	332.93	512.2	816.48	529.99	751.39	640.71	439.02	832.74	469.99	403.44	712.01	726.22	446.21	692.11	1424	89.622	916.23	307.21	402.22	1099.8	102.06	296.18	541.79	754.74	541.15	1076	89.782	377.02	930.3	311.96	331.44	617.19	1108.4	-40.547	690.01	633.37	102.55	602.87	559.32	78.066	624.21	645.51	63.035	755.57	882.77	-64.666	545.33	954.1	194.76	545.38	951.44	299.44	570.59	349.08	157.82	558.73	446.42	96.646	540.81	1125.9	246.73	583.1	799.1	500.56	647.91	739.98	54.983	669.67	1566	198.2	819.75	919.96	-29.173	492.91	181.53	178.02	501.61	271.64	102.56	850.81	1597.6	224.73	547.97	34.966	228.09	569.78	1344.5	351.57	336.14	49.79	208.59	529.57	265.97	168.45	390.02	84.457	159.51	780.57	1347.9	251.78	425.64	97.982	244.77	529.25	1069.8	414.16	596.89	24.073	211.95	514.77	29.494	137.9	962.69	123.29	289.2	942.04	101.27	374.83	837.78	872.08	-78.91	651.22	1236.3	-15.56	915.62	36.584	333.05	1137.9	128.61	322.17
497	2.485	556.36	941.74	536.62	627.29	1200.2	489.75	713.05	1379.5	414.94	746.02	1000.7	-69.734	675.36	1560.1	337.74	737.15	924.94	391.75	652.28	1430.8	263.7	816.16	670.41	403.26	797.7	554.11	421.81	551.99	1088.3	508.15	602.28	1099.9	37.05	907.33	399.39	325.77	969.13	219.19	332.53	516.15	815.73	529.87	758.23	639.47	438.7	840.3	469.44	403.41	718.57	725.1	446.27	699.32	1423	89.905	925.2	306.95	402.18	1110.9	104.63	295.35	545.26	753.76	540.99	1087.2	91.208	375.97	939.36	312.17	331.18	624.82	1107.7	-40.67	695.4	632.29	102.62	607.42	558.83	78.328	629.56	644.9	63.175	764.85	882.83	-64.771	552.24	952.87	195.2	552.62	950.13	300.18	573.71	348.57	157.91	562.47	446.32	96.896	547.97	1124.8	247.05	586.66	797.76	499.7	653.74	739.06	55.447	676.37	1564.8	198.98	828.54	920.48	-29.036	494.38	181.67	178.06	503.8	271.95	102.7	857.76	1596.1	225.49	548.01	35.003	228.08	576.29	1343.2	351.9	336.39	51.131	208.58	532.12	265.91	168.36	390.49	85.539	159.4	787.38	1346.6	252.44	426.22	98.848	244.64	534.98	1069.1	413.86	596.9	24.011	212.02	514.73	29.463	137.91	973.66	124	288.31	953.08	101.39	374.46	847.21	872.72	-78.834	658.68	1235.5	-15.646	927.52	36.325	331.85	1148.8	131.3	321.33
